<svg xmlns="http://www.w3.org/2000/svg" viewBox="0 0 1200 850" role="img"><defs><pattern id="grain" width="26" height="26" patternUnits="userSpaceOnUse"><circle cx="4" cy="8" r=".65" fill="#6d6155" opacity=".22"/><circle cx="17" cy="20" r=".8" fill="#6d6155" opacity=".12"/></pattern>#224e55</defs><rect width="1200" height="850" fill="#eee9df"/><rect width="1200" height="850" fill="url(#grain)"/><defs><linearGradient id="sky" x2="1" y2="1"><stop stop-color="#1c555c"/><stop offset=".58" stop-color="#d68b80"/><stop offset="1" stop-color="#f3d1a5"/></linearGradient><linearGradient id="sea" x2="0" y2="1"><stop stop-color="#5d8b83"/><stop offset="1" stop-color="#183f4d"/></linearGradient></defs><rect width="1200" height="850" fill="url(#sky)"/><circle cx="844" cy="272" r="118" fill="#f8e1b5" opacity=".86"/><path d="M0 565 L214 352 L375 514 L597 287 L824 521 L980 375 L1200 545V850H0Z" fill="#416b69"/><path d="M0 614 L225 478 L452 654 L704 455 L926 624 L1200 485 V850H0Z" fill="#2d5b5e"/><path d="M0 680 Q240 638 431 687 T808 683 T1200 694V850H0Z" fill="url(#sea)"/><path d="M0 700 Q230 681 430 702 M610 721 Q856 698 1190 718 M0 774 Q384 745 701 771" fill="none" stroke="#d5b8a1" stroke-width="4" opacity=".38"/><path d="M177 748 L241 584 L311 751Z M1051 739 L1105 588 L1171 744Z" fill="#153f48"/><text x="90" y="110" fill="#fff4db" font-family="Georgia" font-size="21" letter-spacing="7">DIGITAL DREAMSCAPES / 01</text></svg>